<!-- github.svg -->
<svg xmlns="http://www.w3.org/2000/svg" width="32" height="32" viewBox="0 0 32 32">
  <circle cx="16" cy="16" r="16" fill="#181717"/>
  <path fill="#fff" d="M22.5 25.25v-2.65c0-.82-.28-1.36-.6-1.65 2-.22 4.1-.97 4.1-4.32 0-.96-.34-1.75-.91-2.37.09-.23.39-1.13-.09-2.36 0 0-.75-.24-2.45.91a8.32 8.32 0 0 0-4.46 0c-1.7-1.15-2.45-.91-2.45-.91-.48 1.23-.18 2.13-.09 2.36-.57.62-.91 1.41-.91 2.37 0 3.34 2.1 4.1 4.1 4.32-.26.23-.5.65-.58 1.25-.53.24-1.88.65-2.7-.77-.5-.85-1.46-.92-1.46-.92-.93-.01-.07.58-.07.58.61.28 1.04 1.37 1.04 1.37.55 1.31 2.07.9 2.58.68 0 .43.01.84.01.96v1.51"/>
</svg>
