<svg width="48" height="48" viewBox="0 0 48 48" fill="none" xmlns="http://www.w3.org/2000/svg">
  <rect width="48" height="48" rx="12" fill="#23263a"/>
  <path fill="#fff" d="M24 11.5c-6.62 0-12 5.38-12 12 0 5.3 3.44 9.8 8.2 11.39.6.11.82-.26.82-.58v-2.02c-3.34.73-4.04-1.43-4.04-1.43-.54-1.37-1.32-1.74-1.32-1.74-1.08-.74.08-.72.08-.72 1.2.08 1.83 1.23 1.83 1.23 1.07 1.84 2.8 1.31 3.49 1 .11-.78.42-1.31.77-1.61-2.67-.3-5.47-1.34-5.47-5.95 0-1.31.47-2.38 1.24-3.22-.12-.3-.54-1.51.12-3.15 0 0 1.01-.32 3.3 1.23a11.4 11.4 0 013.01-.4c1.02 0 2.05.13 3.01.4 2.29-1.55 3.29-1.23 3.29-1.23.67 1.64.25 2.85.12 3.15.77.84 1.23 1.91 1.23 3.22 0 4.62-2.8 5.65-5.48 5.95.43.38.82 1.12.82 2.26v3.35c0 .32.22.7.83.58C32.56 33.3 36 28.8 36 23.5c0-6.62-5.38-12-12-12z"/>
</svg>
