<svg xmlns="http://www.w3.org/2000/svg" viewBox="0 0 24 24">
  <rect width="24" height="24" rx="5" fill="#FA5C5C"/>
  <path d="M5.64 6.5A2.19 2.19 0 0 0 3.5 8.63v6.84A2.19 2.19 0 0 0 5.64 17.6h12.72A2.19 2.19 0 0 0 20.5 15.47V8.63A2.19 2.19 0 0 0 18.36 6.5Zm2.21 2h8.3c.66 0 1.19.5 1.19 1.12v5.78c0 .61-.53 1.1-1.19 1.1H7.85c-.65 0-1.18-.49-1.18-1.1V9.62c0-.62.53-1.12 1.18-1.12Zm1.19 1.45v2.46a.74.74 0 1 1-1.47 0V9.95a.74.74 0 1 1 1.47 0Zm5.13-.01a.74.74 0 0 1 .74.75v2.46a.74.74 0 1 1-1.47 0V9.69a.74.74 0 0 1 .73-.74Zm-2.57 3.4c1.14 0 2.06.8 2.06 1.8v.7h-4.12v-.7c0-1 .92-1.8 2.06-1.8Z" fill="#fff"/>
</svg>
