<svg xmlns="http://www.w3.org/2000/svg" width="32" height="32" viewBox="0 0 32 32">
  <g>
    <circle cx="16" cy="16" r="16" fill="#1CAAD9"/>
    <path fill="#fff" d="M23.07 13.19c-.37-.26-4.67-2.74-6.42-3.63a2.39 2.39 0 00-2.3 0c-1.75.89-6.05 3.37-6.42 3.63a2.34 2.34 0 00-.97 1.91v3.7a2.33 2.33 0 00.97 1.91c.37.26 4.67 2.74 6.42 3.63a2.34 2.34 0 002.3 0c1.75-.89 6.05-3.37 6.42-3.63a2.33 2.33 0 00.97-1.91v-3.7a2.34 2.34 0 00-.97-1.91zm-7.62-2.09a1.56 1.56 0 011.46 0c1.75.89 6.06 3.37 6.42 3.63.15.1.23.27.23.45v.36l-6.91 3.68V12.04zm-6.65 4.08v-.36c0-.18.09-.35.23-.45.36-.26 4.67-2.74 6.42-3.63a1.56 1.56 0 011.46 0v7.67l-6.91-3.68zm13.41 4.15c-.37.26-4.67 2.74-6.42 3.63a1.56 1.56 0 01-1.46 0c-1.75-.89-6.06-3.37-6.42-3.63a1.47 1.47 0 01-.56-1.16v-.51l6.91 3.68v.03a2.27 2.27 0 002.3 0v-.03l6.91-3.68v.51c0 .46-.21.89-.56 1.16z"/>
  </g>
</svg>
