<svg xmlns="http://www.w3.org/2000/svg" viewBox="0 0 24 24">
  <rect x="2" y="2" width="24" height="24" rx="5" fill="#1CAAD9"/>
  <path fill="#fff" d="M17.302 9.894c-.258-.182-3.34-1.96-4.586-2.597a1.706 1.706 0 0 0-1.642 0c-1.247.637-4.329 2.415-4.587 2.597a1.675 1.675 0 0 0-.691 1.369v2.651c0 .543.258 1.05.691 1.368.258.183 3.34 1.96 4.587 2.598a1.705 1.705 0 0 0 1.642 0c1.246-.638 4.328-2.415 4.586-2.598.433-.318.692-.825.692-1.368V11.263a1.677 1.677 0 0 0-.692-1.369zm-5.494-1.5a1.137 1.137 0 0 1 1.074 0c1.247.637 4.329 2.415 4.587 2.597.107.07.165.19.165.314v.25l-4.937 2.626V8.394zm-4.75 2.91v-.25c0-.124.058-.244.165-.314.258-.182 3.34-1.96 4.587-2.597a1.136 1.136 0 0 1 1.074 0v5.786l-4.937-2.625zm9.57 2.962c-.258.183-3.34 1.96-4.587 2.598a1.135 1.135 0 0 1-1.074 0c-1.247-.638-4.329-2.415-4.587-2.598a1.105 1.105 0 0 1-.404-.867v-.381l4.937 2.626v.021a1.707 1.707 0 0 0 1.642 0v-.021l4.937-2.626v.381c0 .332-.147.647-.404.867z"/>
</svg>
